<svg width="1024" height="1024" xmlns="http://www.w3.org/2000/svg" xmlns:xlink="http://www.w3.org/1999/xlink" onload="init()" id="KK7joZytcsegC7mFY"><script type="application/javascript"> <![CDATA[ 
function init(){}
 ]]> </script><g id="2yywBt2SAakLDWf8i" type="layer"><title>2yywBt2SAakLDWf8i</title><path d="M821.2298583984375 299.16717529296875L696.0919189453125 220.5879364013672L492.37457275390625 545.0792236328125L617.4093017578125 623.5809936523438L821.2298583984375 299.16717529296875ZM473.2655944824219 644.8590698242188L470.5025329589844 718.5836181640625L535.7571411132812 684.0582885742188L596.415283203125 652.037841796875L475.7704162597656 576.2216796875L473.2655944824219 644.8590698242188ZM854.6190185546875 179.76187133789062L789.2352905273438 138.6775360107422C772.7601928710938 128.32254028320312 751.0431518554688 133.30636596679688 740.636474609375 149.78140258789062L714.8651123046875 190.7882537841797L839.8998413085938 269.3416748046875L865.697021484375 228.386474609375C876.0261840820312 211.83396911621094 871.119873046875 190.09103393554688 854.6190185546875 179.76187133789062ZM752.2310180664062 794.942138671875C752.2310180664062 802.04345703125 746.4208374023438 807.8536376953125 739.3194580078125 807.8536376953125L248.683349609375 807.8536376953125C241.55621337890625 807.8536376953125 235.77186584472656 802.04345703125 235.77186584472656 794.942138671875L235.77186584472656 304.3059997558594C235.77186584472656 297.1788330078125 241.55621337890625 291.39453125 248.683349609375 291.39453125L590.6825561523438 291.39453125L639.3330078125 213.9256591796875L248.683349609375 213.9256591796875C198.84506225585938 213.9256591796875 158.30300903320312 254.46768188476562 158.30300903320312 304.3059997558594L158.30300903320312 794.9420776367188C158.30300903320312 844.7804565429688 198.84506225585938 885.3224487304688 248.683349609375 885.3224487304688L739.3194580078125 885.3224487304688C789.1578369140625 885.3224487304688 829.6998291015625 844.7804565429688 829.6998291015625 794.9420776367188L829.6998291015625 382.6786804199219L752.2310180664062 506.0091247558594L752.2310180664062 794.9420776367188Z" name="undefined" id="HHMxEgXTpbAftxSf4" type="complex_path" stroke="#000000" stroke-width="0" stroke-opacity="1" fill="#000000" fill-opacity="1" stroke-linejoin="bevel" stroke-linecap="round" opacity="1"/></g></svg>