<svg width="1024" height="1024" xmlns="http://www.w3.org/2000/svg" xmlns:xlink="http://www.w3.org/1999/xlink" onload="init()" id="LgcKRC6fCy3RYBdWL"><script type="application/javascript"> <![CDATA[ 
function init(){}
 ]]> </script><g id="q5CTBMpEC2RyqBzZQ" type="layer"><title>q5CTBMpEC2RyqBzZQ</title><path d="M21.34115655633309 511.46650713669686C21.34115655633309 240.67922991501717 240.67901666375496 21.341297328347252 511.4664464733253 21.341297328347252C782.2540136119972 21.341297328347252 1001.5920263073097 240.67922991501717 1001.5920263073097 511.46650713669686C1001.5920263073097 782.2548372148219 782.2540136119972 1001.5922395585719 511.4664464733253 1001.5922395585719C240.67901666375496 1001.5922395585719 21.34115655633309 782.2548372148219 21.34115655633309 511.46650713669686Z" name="http://lore-mbp.local:3000/icons/black_kitty_1024x1024.jpg" id="pTFFGWs6FhqSShvac" type="complex_path" stroke="#000000" stroke-width="7" stroke-opacity="1" fill="#000000" fill-opacity="0" stroke-linejoin="miter" stroke-linecap="butt" opacity="1"/><path d="M6.409110572928057 511.99979993129386C6.409110572928057 232.6679823043409 232.6678386002718 6.409202778584074 511.999427345389 6.409202778584074C791.3320689469515 6.409202778584074 1017.590735939139 232.6679823043409 1017.590735939139 511.99979993129386C1017.590735939139 791.332685673482 791.3320689469515 1017.5908643844195 511.999427345389 1017.5908643844195C232.6678386002718 1017.5908643844195 6.409110572928057 791.332685673482 6.409110572928057 511.99979993129386Z" name="http://lore-mbp.local:3000/icons/black_kitty_1024x1024.jpg" id="qzcbjtxFyvWEyFaCS" type="complex_path" stroke="#000000" stroke-width="14" stroke-opacity="1" fill="#000000" fill-opacity="0" stroke-linejoin="miter" stroke-linecap="butt" opacity="1"/><g id="KGicEnDffnwuahWhf" type="simpleGroup"><path d="M560.0136108398438 237.0960693359375C648.8740234375 290.1776428222656 686.9744262695312 344.1941833496094 725.044921875 421.2256774902344C763.1153564453125 498.25701904296875 784.9078979492188 595.7643432617188 784.9078979492188 595.7643432617188C733.0436401367188 829.0301513671875 688.2761840820312 807.0284423828125 639.1146850585938 771.0560913085938C605.9766845703125 746.8085327148438 570.6563720703125 697.2234497070312 550.4340209960938 632.7774658203125C524.3919677734375 549.7850341796875 532.0438842773438 488.2340087890625 542.7301025390625 409.9529113769531C556.8162231445312 306.7667541503906 560.013671875 237.0960693359375 560.013671875 237.0960693359375L560.0136108398438 237.0960693359375Z" name="undefined" id="XEfG2DT79tb3c4gxL" type="complex_path" stroke="#000000" stroke-width="10" stroke-opacity="1" fill="#ffffff" fill-opacity="1" stroke-linejoin="miter" stroke-linecap="butt" opacity="1"/><path d="M278.7599792480469 282.1939392089844C251.7052764892578 392.6672058105469 215.6323699951172 406.1945495605469 253.95985412597656 503.14044189453125C294.5418701171875 600.0863647460938 303.56011962890625 604.595458984375 328.3602294921875 627.1410522460938C355.4149169921875 649.6865844726562 368.9422607421875 656.4502563476562 364.4331359863281 667.7230834960938C362.1785888671875 678.995849609375 337.3784484863281 706.050537109375 359.92401123046875 717.3233032226562C382.4696044921875 730.8506469726562 456.8699645996094 739.868896484375 529.0156860351562 681.2504272460938C605.670654296875 618.122802734375 625.961669921875 557.2498168945312 637.2344360351562 509.90411376953125C650.7617797851562 464.81298828125 616.9434204101562 338.5578308105469 592.143310546875 295.7212829589844C567.3432006835938 252.8846893310547 278.7599792480469 282.1939392089844 278.7599792480469 282.1939392089844Z" name="undefined" id="rj5uf7GFmpuGjWGjD" type="complex_path" stroke="#000000" stroke-width="8" stroke-opacity="1" fill="#ffffff" fill-opacity="1" stroke-linejoin="miter" stroke-linecap="butt" opacity="1"/><path d="M429.81527879000214 672.2321894378433C429.81527879000214 672.2321894378433 443.34262254000214 683.5049555511246 438.83346726656464 699.2868769378433C434.3243730282834 715.0687372894058 429.81527879000214 726.3415644378433 420.7970292782834 726.3415644378433C411.7788408017209 726.3415644378433 432.06979539156464 730.8506586761246 436.57895066500214 724.0869868011246C443.34262254000214 717.3233149261246 447.8517167782834 706.0505488128433 447.8517167782834 694.7777826995621C445.59713914156464 681.2504389495621 436.57895066500214 676.7412836761246 429.81527879000214 672.2321894378433Z" name="undefined" id="9ZyQH2NgCAD6BGDFJ" type="complex_path" stroke="#null" stroke-width="1" stroke-opacity="1" fill="#000000" fill-opacity="1" stroke-linejoin="miter" stroke-linecap="butt" opacity="1"/><path d="M382.46960618258026 701.5414545745621C382.46960618258026 701.5414545745621 389.23327805758026 701.5414545745621 389.23327805758026 694.7777826995621C389.23327805758026 685.7595331878433 382.46960618258026 685.7595331878433 382.46960618258026 685.7595331878433C382.46960618258026 685.7595331878433 384.7241533017209 688.0141108245621 384.7241533017209 692.5232050628433C384.7241533017209 697.0322993011246 377.9604814267209 699.2868769378433 382.46960618258026 701.5414545745621Z" name="undefined" id="h3YLt6yGqo5pGSfgk" type="complex_path" stroke="#null" stroke-width="1" stroke-opacity="1" fill="#000000" fill-opacity="1" stroke-linejoin="miter" stroke-linecap="butt" opacity="1"/><path d="M456.6554277157834 178.0628931731947C655.0564286923459 157.77189280698377 738.9468095517209 294.7512934417494 824.6199662900021 503.29774119565565C910.2931230282834 711.8442499847183 774.9980180478146 850.2166254729996 723.4906327939084 821.9014399261246C671.9832475400021 793.5862543792496 729.9420488095334 683.7132685394058 721.9101884579709 622.9811518401871C713.8783281064084 562.2490351409683 636.5473344540646 253.40223338315565 530.4572465634396 234.95177867124158Z" name="undefined" id="Y78ytXz286iZRmdjM" type="complex_path" stroke="#000000" stroke-width="0" stroke-opacity="1" fill="#000000" fill-opacity="1" stroke-linejoin="miter" stroke-linecap="butt" opacity="1"/><path d="M192.26853942871094 274.8007507324219C150.51382446289062 311.0321350097656 111.012939453125 351.4671630859375 110.97860717773438 403.47076416015625C110.928466796875 479.42303466796875 146.20120239257812 498.68511962890625 146.20120239257812 498.68511962890625C146.20120239257812 498.68511962890625 137.8959503173828 473.6561279296875 143.9088592529297 458.625C152.8729705810547 436.21917724609375 162.0139617919922 418.5419921875 162.0139617919922 418.5419921875C162.0139617919922 418.5419921875 153.9456024169922 506.6624755859375 188.99998474121094 564.59033203125C220.50184631347656 616.6474609375 251.09461975097656 650.726318359375 274.2451477050781 662.149658203125C298.00030517578125 673.8712768554688 338.06060791015625 702.1640014648438 338.06060791015625 702.1640014648438C338.06060791015625 702.1640014648438 322.3951721191406 691.6475830078125 317.2602844238281 641.9490356445312C315.1190185546875 621.2243041992188 328.76513671875 609.7070922851562 329.9876708984375 584.1728515625C332.0958557128906 540.1399536132812 319.6247253417969 500.45672607421875 319.6247253417969 500.45672607421875C319.6247253417969 500.45672607421875 322.454345703125 522.8088989257812 359.95208740234375 537.8629150390625C375.2012939453125 543.9849243164062 423.7245788574219 533.156982421875 423.7245788574219 533.156982421875C423.7245788574219 533.156982421875 369.710205078125 507.0579833984375 363.6000061035156 467.09393310546875C362.6122131347656 460.63336181640625 378.6997985839844 467.0711669921875 398.5988464355469 464.00848388671875C413.2469177246094 461.75408935546875 447.2051086425781 459.6905517578125 447.2051086425781 459.6905517578125C447.2051086425781 459.6905517578125 384.7345275878906 412.8617858886719 395.7120056152344 356.0267028808594C408.488525390625 289.8938293457031 436.6018371582031 279.94439697265625 459.7494201660156 255.0054168701172C469.7461242675781 244.2350311279297 448.4236755371094 216.65432739257812 411.6083679199219 199.96331787109375C390.8759460449219 190.56390380859375 239.7638702392578 233.588134765625 192.26856994628906 274.80072021484375L192.26853942871094 274.8007507324219Z" name="undefined" id="fPf3E4xzyKAEdrSAA" type="complex_path" stroke="#000000" stroke-width="1" stroke-opacity="1" fill="#000000" fill-opacity="1" stroke-linejoin="miter" stroke-linecap="butt" opacity="1"/><path d="M585.3796851871382 294.1471040741835C558.3249976871382 237.7831819550429 538.0339820621382 190.4374788300429 454.61537244299757 163.38280658883195C368.94224622229444 134.07355671090227 323.85109021643507 152.11000995797258 319.3419959781538 158.87368183297258C314.83287122229444 167.89193134469133 323.85109021643507 210.72852497262102 371.19679334143507 255.81965046090227C416.2879188297163 300.9107759491835 490.68824841956007 327.9654634491835 585.3796851871382 294.1471040741835Z" name="undefined" id="2vTcZdc2sbtuQ7z3A" type="complex_path" stroke="#000000" stroke-width="10" stroke-opacity="1" fill="#ffffff" fill-opacity="1" stroke-linejoin="miter" stroke-linecap="butt" opacity="1"/><path d="M412.1230948915115 159.7521120580135C412.1230948915115 159.7521120580135 457.2142203797928 177.78858056387287 475.250658368074 209.3524233373103C491.0325797547928 238.66161218008375 491.0325797547928 258.9526125462947 491.0325797547928 258.9526125462947C491.0325797547928 258.9526125462947 479.7597526063553 218.37064233145094 452.7051261415115 195.8250795873103C425.6504386415115 171.02490868887287 412.1230948915115 159.75214257559162 412.1230948915115 159.75214257559162Z" name="undefined" id="PHmRqccjZ533q8XW7" type="complex_path" stroke="#null" stroke-width="1" stroke-opacity="1" fill="#000000" fill-opacity="1" stroke-linejoin="miter" stroke-linecap="butt" opacity="1"/><path d="M541.6894807573589 239.33097285769833C586.7806062456401 259.62204188846005 592.8236970659526 276.1106283142413 608.6056184526714 296.4016439392413C624.3875398393901 314.43811244510067 653.6966829057965 395.60214442752255 653.6966829057965 445.20239467166317C655.9513215776715 494.80261439822544 626.6419954057964 566.9484273865066 586.0600862261089 612.0395528747879C552.2417268511089 650.3670064880691 538.7143831011089 670.6580221130691 513.9142732378276 684.1853658630691C491.3686189409526 697.7127096130691 392.1429109331401 296.78833217166317 425.98769853079637 280.25952357791317Z" name="undefined" id="buHe4YsHgQpEM6Xrj" type="complex_path" stroke="#000000" stroke-width="0" stroke-opacity="1" fill="#ffffff" fill-opacity="1" stroke-linejoin="miter" stroke-linecap="butt" opacity="1"/></g></g></svg>