
<svg width="1024" height="1024" xmlns="http://www.w3.org/2000/svg" xmlns:xlink="http://www.w3.org/1999/xlink" id="aL9Qgdb8k7ZevY6Cd"><g id="DcsmJqy6Ticsgz34e" type="layer"><title>DcsmJqy6Ticsgz34e</title><path d="M210.16624450683594 837.0868530273438C217.11090087890625 856.7916870117188 227.59722900390625 908.1890258789062 266.6142883300781 908.0604248046875C305.62078857421875 907.74951171875 353.7682189941406 908.7274780273438 394.1607666015625 908.525634765625C464.47265625 909.0624389648438 465.4638977050781 822.6911010742188 394.6615295410156 789.7276000976562C358.6406555175781 774.4979858398438 326.2062072753906 752.45947265625 298.9695739746094 725.2227783203125C244.496337890625 670.749267578125 210.81442260742188 595.4849243164062 210.81442260742188 512.3196411132812C210.81442260742188 345.9891052246094 345.5420227050781 211.26138305664062 511.87255859375 211.26138305664062C678.2033081054688 211.26138305664062 812.9309692382812 345.9891052246094 812.9309692382812 512.3196411132812C812.9309692382812 595.4849243164062 779.2490844726562 670.749267578125 724.7757568359375 725.2227783203125C697.5390625 752.45947265625 665.1045532226562 774.4979858398438 629.083740234375 789.7276000976562C558.9674682617188 823.4132690429688 559.0927124023438 909.0987548828125 628.6288452148438 909.3373413085938C668.81396484375 908.8706665039062 716.873779296875 908.0700073242188 752.40234375 908.5007934570312C790.69580078125 908.3384399414062 812.0285034179688 857.55029296875 815.5189819335938 837.0861206054688" name="undefined" id="ugLmzgDyvaKGr6LzX" type="complex_path" stroke="#000000" stroke-width="60" stroke-opacity="1" fill="#ffffff" fill-opacity="0" stroke-linejoin="round" stroke-linecap="round" opacity="1"/><path d="M540.9600169396726 654.5941797625846C543.4199778771726 683.7400537860221 561.5892894006101 698.3133570086784 595.4670970177976 698.3133570086784L595.4670970177976 708.8173242938346L431.94625351193827 708.8173242938346L431.94625351193827 698.3133570086784C465.82369491818827 698.3133570086784 483.99251816037577 683.7400537860221 486.45321151975077 654.5941797625846C436.488184664282 654.5944239032096 396.50704452756327 641.1568628680534 366.50948593381327 614.2814966571159C336.511622164282 587.4068628680534 321.5126902795164 554.7593408953971 321.51275131467264 516.3396021258659C321.5126902795164 475.27020515320964 336.74813339475077 442.48089851258464 367.21905014279764 417.97125495789714C397.6900584435789 393.4623133075065 437.43462631467264 380.166781080944 486.45321151975077 378.0846277606315C484.18194076779764 348.9388452899284 466.01278183225077 334.36593879578777 431.94625351193827 334.3656031024284L431.94625351193827 323.86178840516277L595.4670970177976 323.86178840516277L595.4670970177976 334.3656031024284C561.5892894006101 334.36593879578777 543.4199778771726 348.9388452899284 540.9600169396726 378.0846277606315C595.0881907677976 379.78854621766277 636.1102854943601 394.030306471569 664.0266673302976 420.8101831805534C691.9421946740476 447.5907007586784 705.9002024865476 479.4338404071159 705.9004466271726 516.3396021258659C705.9002024865476 554.7593408953971 690.9484812951414 587.4068628680534 661.0459544396726 614.2814966571159C631.1423899865476 641.1568628680534 591.1138255334226 654.5944239032096 540.9600169396726 654.5941797625846L540.9600169396726 654.5941797625846ZM486.45321151975077 393.69891609070964C454.08941147092264 395.59161628602214 428.72869369748514 405.66964973328777 410.37056991818827 423.9330164325065C392.0122325158445 442.1971460711784 382.83297226193827 474.6078211200065 382.8330332970945 521.1655298602409C382.83297226193827 595.7344385516471 417.37313339475077 635.0057398211784 486.45321151975077 638.9801660907096L486.45321151975077 393.69891609070964ZM540.9600169396726 393.69891609070964L540.9600169396726 638.9801660907096C572.1879832482664 637.6555200946159 597.3123118615476 628.0032984149284 616.3329417443601 610.0233179461784C635.3534495568601 592.0435816180534 644.8634593224851 559.3015772235221 644.8638865685789 511.7973657977409C644.8634593224851 437.0396753680534 610.2293650842039 397.67331184266277 540.9600169396726 393.69891609070964L540.9600169396726 393.69891609070964Z" name="undefined" id="QuYh4NnJvdRbq9qBN" type="complex_path" stroke="none" stroke-width="1px" stroke-opacity="1" fill="#000000" fill-opacity="1" stroke-linejoin="miter" stroke-linecap="butt" opacity="1"/></g></svg>