<svg width="1024" height="1024" xmlns="http://www.w3.org/2000/svg" xmlns:svg="http://www.w3.org/2000/svg">
 <g id="DcsmJqy6Ticsgz34e">
  <title>DcsmJqy6Ticsgz34e</title>
  <path d="m210.16624,837.08685c6.94466,19.70484 17.43099,71.10218 56.44805,70.97357c39.0065,-0.31091 87.15393,0.66706 127.54648,0.46521c70.31189,0.53681 71.30313,-85.83453 0.50076,-118.79803c-36.02087,-15.22961 -68.45532,-37.26813 -95.69196,-64.50482c-54.47323,-54.47351 -88.15515,-129.73786 -88.15515,-212.90314c0,-166.33053 134.7276,-301.05826 301.05814,-301.05826c166.33075,0 301.05841,134.72773 301.05841,301.05826c0,83.16528 -33.68189,158.42963 -88.15521,212.90314c-27.2367,27.23669 -59.67121,49.27521 -95.69202,64.50482c-70.11627,33.68567 -69.99103,119.37115 -0.45489,119.60974c40.18511,-0.46667 88.24493,-1.26733 123.77349,-0.83655c38.29346,-0.16235 59.62616,-50.9505 63.11664,-71.41467" id="ugLmzgDyvaKGr6LzX" stroke="#000000" stroke-width="60" fill="#ffffff" fill-opacity="0" stroke-linejoin="round" stroke-linecap="round"/>
 </g>
 <g>
  <title>Layer 2</title>
  <g id="svg_1">
   <path stroke-width="0" stroke="null" id="svg_22" d="m498.70135,430.65993c-35.31338,-6.94465 -77.47913,-3.20737 -103.73518,19.2163c-23.84756,20.69447 -30.02147,50.48113 -30.59815,77.95291c-0.16962,50.23013 0,100.46025 -0.06785,150.66248c15.84183,0 31.68367,0 47.49158,0c-0.03393,-47.41322 0.03393,-94.82643 -0.03393,-142.23966c-0.06785,-18.57482 1.89967,-38.65572 15.60438,-54.19052c9.80362,-11.15606 26.28998,-17.04086 42.64066,-18.01702c24.45815,-1.64552 50.95168,3.37471 68.69318,18.07281c18.41995,14.61443 25.64546,36.20138 25.7133,56.72852c0.06785,46.54863 0.03392,93.09725 0.03392,139.64588c15.84184,0 31.64975,0 47.49158,0c0,-81.80175 0,-163.63139 0,-245.43313c-15.84183,0 -31.64974,0 -47.49158,0c0.03393,12.74579 0.03393,25.49157 -0.03392,38.23736c-15.90968,-18.79795 -37.8915,-35.33679 -65.70799,-40.63591l0,0z" fill="#7f7f7f"/>
   <path stroke-width="0" stroke="null" id="svg_23" d="m498.06731,354.58481c46.26457,-9.0764 101.5065,-4.19192 135.90495,25.11499c31.24303,27.0469 39.33154,65.97696 40.08706,101.88155c0.22222,65.64891 0,131.29781 0.08889,196.91026c-20.75461,0 -41.50922,0 -62.2194,0c0.04444,-61.96731 -0.04443,-123.93463 0.04444,-185.90194c0.08889,-24.27661 -2.48877,-50.52159 -20.44351,-70.825c-12.84387,-14.58055 -34.44289,-22.27178 -55.86414,-23.54758c-32.04299,-2.15063 -66.75252,4.41062 -89.99592,23.62049c-24.13224,19.10051 -33.59847,47.31386 -33.68736,74.14207c-0.08889,60.83733 -0.04444,121.67465 -0.04444,182.51197c-20.75461,0 -41.46479,0 -62.2194,0c0,-106.91184 0,-213.86014 0,-320.77198c20.75461,0 41.46479,0 62.2194,0c-0.04444,16.65827 -0.04444,33.31654 0.04444,49.97481c20.8435,-24.56822 49.64219,-46.18387 86.08498,-53.10963l0,0z" fill="#000000"/>
  </g>
 </g>
</svg>
